<?xml version="1.0" standalone="no"?><!DOCTYPE svg PUBLIC "-//W3C//DTD SVG 1.1//EN" "http://www.w3.org/Graphics/SVG/1.1/DTD/svg11.dtd"><svg t="1524970623086" class="icon" style="" viewBox="0 0 1024 1024" version="1.1" xmlns="http://www.w3.org/2000/svg" p-id="5568" xmlns:xlink="http://www.w3.org/1999/xlink" width="200" height="200"><defs><style type="text/css"></style></defs><path d="M752.326531 111.804082h-457.665307c-30.302041 0-55.379592 25.077551-55.379591 55.379591v693.812245c0 30.302041 25.077551 55.379592 55.379591 55.379592H752.326531c30.302041 0 55.379592-25.077551 55.379591-55.379592V167.183673c1.044898-30.302041-24.032653-55.379592-55.379591-55.379591z m0 55.379591v548.571429h-457.665307V167.183673H752.326531z m-456.620409 692.767347v-88.816326H752.326531v88.816326h-456.620409z" p-id="5569"></path><path d="M456.620408 250.77551h133.746939c15.673469 0 28.212245-12.538776 28.212245-28.212245s-12.538776-28.212245-28.212245-28.212245h-133.746939c-15.673469 0-28.212245 12.538776-28.212245 28.212245s13.583673 28.212245 28.212245 28.212245z m91.951021 539.167347h-49.110205c-15.673469 0-28.212245 12.538776-28.212244 28.212245 0 15.673469 12.538776 28.212245 28.212244 28.212245h49.110205c15.673469 0 28.212245-12.538776 28.212244-28.212245 0-15.673469-12.538776-28.212245-28.212244-28.212245z" p-id="5570"></path></svg>