<?xml version="1.0" standalone="no"?><!DOCTYPE svg PUBLIC "-//W3C//DTD SVG 1.1//EN" "http://www.w3.org/Graphics/SVG/1.1/DTD/svg11.dtd"><svg t="1524989378542" class="icon" style="" viewBox="0 0 1024 1024" version="1.1" xmlns="http://www.w3.org/2000/svg" p-id="6335" xmlns:xlink="http://www.w3.org/1999/xlink" width="200" height="200"><defs><style type="text/css"></style></defs><path d="M342.496 555.78c-44.628 38.26-93.768 68.513-145.452 96.39 1.717 1.07 2.581 1.693 3.514 2.182 80.925 42.43 162.363 83.81 246.596 119.409a3322.201 3322.201 0 0 0 50.842 20.964c32.156 12.966 63.603 10.177 94.817-3.845 56.376-25.331 102.885-63.486 143.779-109.15 55.335-61.794 98.932-130.744 127.53-208.84 12.241-33.433 22.029-67.548 26.723-102.927 1.614-12.165 2.324-24.458 3.211-36.709 0.778-10.695-1.385-13.571-11.775-16.49a161151.286 161151.286 0 0 0-125.742-35.267c-72.177-20.21-144.358-40.403-216.539-60.606-11.875-3.324-13.13-2.674-13.998 9.43-2.564 35.796-9.027 70.77-21.322 104.568-1.512 4.15-2.847 8.409-4.818 12.34-3.913 7.802-3.096 14.664 1.61 22.105 15.265 24.146 27.67 49.786 37.97 76.423 11.174 28.9 20.07 58.494 26.465 88.824 0.367 1.74 0.473 3.537 0.702 5.307-0.45 0.361-0.901 0.726-1.35 1.088-0.856-1.352-1.534-2.866-2.594-4.033-44.535-49.12-91.143-96.131-142.205-138.54-42.815-35.56-87.235-68.825-137.731-93.016-8.836-4.233-18.048-7.682-27.132-11.38-1.598-0.65-3.425-0.734-5.144-1.08l-1.142 1.273c1.357 1.522 2.491 3.353 4.103 4.526 23.05 16.766 46.62 32.859 69.167 50.274 41.06 31.714 79.383 66.692 115.432 103.9 61.253 63.22 121.39 127.527 181.96 191.41 2.016 2.124 3.863 4.49 5.38 6.99 3.915 6.444 2.894 13.344-2.513 18.808-4.73 4.788-11.847 5.663-18.045 1.873-2.48-1.516-4.751-3.513-6.761-5.629-10.839-11.406-21.784-22.732-32.26-34.47-7.679-8.603-16.632-15.08-26.992-20.05-60.391-28.96-120.54-58.396-178.893-91.35-52.54-29.672-103.833-61.321-152.357-97.253-14.04-10.396-27.177-22.01-40.727-33.069 0.193-0.537 0.386-1.074 0.582-1.61 2.107-0.33 4.21-0.916 6.32-0.941 11.289-0.134 22.578-0.068 33.866-0.24 1.541-0.024 3.063-1 4.596-1.533-0.95-1.265-1.626-3.033-2.888-3.718-20.39-11.067-41.874-19.579-64.465-24.658-11.53-2.593-20.008-7.952-27.292-17.191-17.05-21.63-32.619-43.978-40.339-70.809-6.971-24.24-7.144-48.468 1.152-72.507 0.692-2.006 1.514-3.973 2.37-5.917 1.746-3.972 4.774-5.263 8.813-3.807 2.457 0.886 4.893 1.912 7.188 3.151 19.876 10.74 39.72 21.548 59.577 32.33 0.974 0.53 1.973 1.012 2.961 1.518l1.452-0.66c-0.86-2.504-1.232-5.336-2.66-7.457-11.836-17.59-25.173-33.942-40.526-48.634-7.303-6.99-6.656-8.77 3.133-11.904 19.123-6.123 38.628-6.55 58.361-4.32 22.551 2.549 44.38 8.204 65.947 15.05 13.705 4.35 24.133 13.016 32.233 24.575 19.744 28.178 39.448 56.389 55.101 87.156 0.421 0.827 0.934 1.609 2.166 3.723 1.315-28.137-5.255-53.766-10.887-80 1.105 0.435 1.72 0.566 2.211 0.888 26.545 17.453 54.083 33.433 78.728 53.7 17.657 14.523 32.705 31.176 43.97 51.14 0.398 0.703 0.857 1.37 2.026 3.23 2.536-8.09 4.987-15.188 6.984-22.416 8.981-32.522 11.452-65.728 10.394-99.327-0.189-5.998 0.186-12.166 1.398-18.03 3.677-17.764 18.487-23.792 33.023-20.49 19.922 4.526 39.545 10.414 59.232 15.947 120.993 34.01 241.97 68.084 362.954 102.14 1.259 0.355 2.517 0.722 3.763 1.119 16.081 5.145 21.84 12.397 22.906 29.125 2.044 32.037 0.235 63.862-5.378 95.471-10.823 60.98-32.618 118.2-59.954 173.438-39.285 79.39-91.74 148.752-158.862 206.796-39.13 33.835-81.763 61.975-131.467 77.707-17.086 5.406-34.85 9.125-52.574 11.866-8.022 1.24-16.976-0.815-25.044-3.048-43.006-11.914-84.217-28.731-124.896-46.92-88.854-39.728-175.339-84.166-260.681-130.88-5.737-3.14-11.494-6.338-16.842-10.083-16.923-11.847-15.648-37.82 2.493-47.716 9.465-5.163 19.489-9.304 29.24-13.946 45.73-21.748 88.526-48.313 129.052-78.607a102.404 102.404 0 0 1 6.05-4.206c3.881-2.494 7.922-2.975 12.053-0.597 15.88 9.13 31.747 18.274 48.151 27.721z" fill="#e98f36" p-id="6336"></path></svg>